<?xml version="1.0" encoding="utf-8"?>
<!-- Generator: Adobe Illustrator 18.1.0, SVG Export Plug-In . SVG Version: 6.00 Build 0)  -->
<svg version="1.1" id="Layer_1" xmlns="http://www.w3.org/2000/svg" xmlns:xlink="http://www.w3.org/1999/xlink" x="0px" y="0px"
	 viewBox="0 531.5 231 161" enable-background="new 0 531.5 231 161" xml:space="preserve">
<g id="Layer_1_1_">
	<g>
		<path fill="#722750" d="M55.9,627.1h-4v-32.4c2.1,0,5.4,0,7.7,3.1c1.5,2.3,1.7,4.8,1.9,7.5h1.9v-23.2h-1.9
			c-0.2,3.3-0.4,7.5-3.7,9.6c-1.7,1-4,1.2-5.8,1.5v-27.6c4,0,9.6,0,13.1,4.8c2.3,3.3,2.3,9.6,2.5,11.4h1.9v-17.9H40.7v1.7h3.7v61.6
			h-3.7v1.7h15.4v-1.7L55.9,627.1L55.9,627.1z"/>
		<path fill="#722750" d="M212.6,531.9c0,0-12.7,0.8-42.8,16.6c0,0-12.7,6.5-32,18.2l-10.6,6.6c-5.4,3.3-11,7.1-17,11.2v-19.3h3.7
			v-1.7h-12.9l-6.5,45.2L86,563.6H72.9v1.7H77v57.3c0,4.3-0.8,4.3-4.3,4.3v1.7h10.6v-1.5c-3.7,0-4.3-0.2-4.3-4.1v-56.9l12,62.7h2.9
			l8.9-62.7v61h-3.7v1.7h15.1v-1.7h-3.7V586c1.5-1,7.9-5.4,17-11.2l10.4-6.6c15.4-9.6,34.6-20.7,52.5-28.4c0,0,24.3-10.8,30.5-5.6
			c0,0,3.3,2.5-2.1,11.6c0,0-5.8,11-28.4,32.2l-9.9,8.7c-1,0.8-1.9,1.7-2.9,2.5c0,0-25.9,22.6-65.1,49.2c0,0-30.9,22-67,39.8
			c0,0-34.6,18.1-42.9,11.6c0,0-7.1-4,15.6-28.4c0,0,12.4-13.3,28-26.8l-0.8-0.8c0,0-14.7,12-30.7,29.7c0,0-19.3,21-13.1,27.4
			c0,0,2.3,2.5,10.8,1c0,0,14.7-1.7,48.4-20.1c0,0,31.3-16.8,58.1-36.3c0,0,33.6-23,59.2-45.4c0,0,1-0.8,2.7-2.1l9.9-8.5
			c6.5-6,14.3-13.7,21-21.8c0,0,16-17.2,10.8-23.7C222.4,533.9,220.3,530.8,212.6,531.9z"/>
	</g>
</g>
<g id="Layer_2">
	<g>
		<g>
			<path fill="#6E6358" d="M132.7,580.2h5.5v15.3c-1.6,0.6-3.3,1-4.8,1c-4.2,0-5.9-2-5.9-5.7v-22.2c0-3.4,2.1-5.1,5.4-5.1
				s5.3,1.8,5.3,5.1v6.2h-3.1V569c0-1.8-0.5-3-2.2-3c-1.7,0-2.2,1.2-2.2,3v21.5c0,2.6,1.4,3.2,2.4,3.2c0.8,0,1.6-0.2,2-0.5v-10.5
				h-2.5L132.7,580.2L132.7,580.2z"/>
			<path fill="#6E6358" d="M148.2,563.6h3.1v32.6h-3.1V563.6z"/>
			<path fill="#6E6358" d="M167.6,591.6c0,1.8-0.7,2.5-1.9,2.5s-1.9-0.7-1.9-2.5v-15.3c0-1.8,0.7-2.5,1.9-2.5c1.1,0,1.9,0.7,1.9,2.5
				V591.6z M161,591.7c0,3.7,2.4,4.7,4.8,4.7s4.8-1,4.8-4.7v-15.6c0-3.7-2.4-4.7-4.8-4.7s-4.8,1-4.8,4.7V591.7z"/>
			<path fill="#6E6358" d="M187.4,591.5c0,1.7-0.5,2.6-1.6,2.6c-1.1,0-2.1-0.7-2.1-2.7v-14.6c0-1.5,0.8-2.7,2.1-2.7
				c1.1,0,1.7,1,1.7,2.9L187.4,591.5L187.4,591.5z M180.5,596.2h2.9v-1.5h0.1c0.7,0.9,1.3,1.8,3,1.8c1.9,0,3.8-1.1,3.8-4.7v-16.5
				c0-2.2-1.4-3.8-3.4-3.8c-0.7,0-1.3,0.1-1.9,0.4c-0.5,0.2-1,0.7-1.4,1.3h-0.1v-9.5h-3.1L180.5,596.2L180.5,596.2z"/>
			<path fill="#6E6358" d="M207.1,591.5c0,1.6-0.7,2.5-2,2.5c-1.5,0-1.8-1-1.8-2.7V586c0-2.1,2.3-2.7,3.8-2.7L207.1,591.5
				L207.1,591.5z M207.1,581c-4.5,0-6.7,1.6-6.7,4.7v6.7c0,2.5,1.2,4,3.5,4c1.7,0,2.5-0.6,3.3-1.6h0.1v1.3h2.7v-20.6
				c0-3.1-1.7-4.3-4.5-4.3c-2.6,0-4.8,1.5-4.8,4v3.6h2.9v-3c0-1.5,0.2-2.4,1.9-2.4c1.1,0,1.7,0.6,1.7,2.1L207.1,581L207.1,581z"/>
			<path fill="#6E6358" d="M219.3,563.6h3v32.6h-3V563.6z"/>
		</g>
		<g>
			<path fill="#6E6358" d="M225,566.3c0-1.5,1.2-2.6,2.6-2.6s2.6,1.2,2.6,2.6c0,1.5-1.2,2.7-2.6,2.7
				C226.2,568.9,225,567.8,225,566.3z M229.8,566.3c0-1.2-1-2.3-2.2-2.3c-1.2,0-2.2,1-2.2,2.3c0,1.2,1,2.3,2.2,2.3
				C228.8,568.6,229.8,567.5,229.8,566.3z M226.8,565.2c0-0.2,0-0.2-0.2-0.2h-0.1v-0.1h1.3c0.6,0,1,0.2,1,0.7c0,0.4-0.3,0.7-0.7,0.7
				c0.3,0.1,0.5,0.4,0.6,0.7c0.1,0.3,0.2,0.6,0.5,0.6v0.1h-0.5c-0.2,0-0.3-0.3-0.5-0.6c-0.3-0.6-0.2-0.7-0.7-0.7v0.9
				c0,0.2,0,0.2,0.2,0.2h0.1v0.1h-1.2v-0.1h0.1c0.2,0,0.2,0,0.2-0.2v-2.1H226.8z M227.4,566.2c0.4,0,0.7-0.1,0.7-0.6
				c0-0.4-0.2-0.6-0.6-0.6h-0.1c-0.1,0-0.1,0.2-0.1,0.3v0.9H227.4z"/>
		</g>
	</g>
</g>
</svg>
